<svg xmlns="http://www.w3.org/2000/svg" viewBox="0 0 138.86 129.05"><defs><style>.cls-1{fill:#060607;}</style></defs><g id="Layer_2" data-name="Layer 2"><g id="Layer_1-2" data-name="Layer 1"><path class="cls-1" d="M27.86,32.16a2.73,2.73,0,0,1,3.72,1l50.65,87.71,50.64-87.71a2.72,2.72,0,0,1,4.72,2.72l-53,91.8s0,.06-.06.09a2.38,2.38,0,0,1-.31.4l-.12.13a3.14,3.14,0,0,1-.5.38h0a2.49,2.49,0,0,1-.56.24,2.72,2.72,0,0,1-.79.13h0a2.87,2.87,0,0,1-.81-.14,2.58,2.58,0,0,1-.54-.23h0a3.14,3.14,0,0,1-.5-.38.69.69,0,0,1-.11-.13,2.44,2.44,0,0,1-.32-.4s-.05,0-.06-.09l-53-91.8A2.72,2.72,0,0,1,27.86,32.16Z"/><path class="cls-1" d="M83.13,97.25a2.73,2.73,0,0,1-2.36-4.09L131.42,5.45H30.13a2.73,2.73,0,0,1,0-5.45h106l.17,0,.27,0,.27.07.25.07.27.12a.59.59,0,0,0,.14.06l.07.06.24.17.19.16.18.19a1.73,1.73,0,0,1,.17.21,1.59,1.59,0,0,1,.13.22,1.71,1.71,0,0,1,.13.23l.09.24a2.58,2.58,0,0,1,.08.26,2,2,0,0,1,0,.24c0,.1,0,.2,0,.29s0,.06,0,.09a.88.88,0,0,1,0,.16,1.5,1.5,0,0,1,0,.29,2.38,2.38,0,0,1-.05.26c0,.08,0,.16-.08.25l-.12.27s0,.09-.07.14l-53,91.8A2.72,2.72,0,0,1,83.13,97.25Z"/><path class="cls-1" d="M0,19.36a1.53,1.53,0,0,1,0-.3,2,2,0,0,1,0-.24,2,2,0,0,1,.08-.26,2.34,2.34,0,0,1,.09-.24c0-.08.08-.16.13-.24a2.39,2.39,0,0,1,.13-.21,1.73,1.73,0,0,1,.17-.21,1.62,1.62,0,0,1,.18-.19,1.56,1.56,0,0,1,.2-.16l.23-.17.07-.06L1.5,17l.27-.12L2,16.82l.26-.05a1.43,1.43,0,0,1,.29,0l.15,0h106a2.73,2.73,0,0,1,0,5.45H7.44l50.64,87.71a2.72,2.72,0,1,1-4.71,2.73l-53-91.8L.3,20.66.18,20.4a2.58,2.58,0,0,1-.08-.26,1.84,1.84,0,0,1,0-.25c0-.1,0-.2,0-.3s0-.1,0-.15S0,19.39,0,19.36Z"/><path class="cls-1" d="M73.32,81.62A2.68,2.68,0,0,1,71,80.28L46.37,37.61a2.67,2.67,0,0,1,2.32-4H98a2.67,2.67,0,0,1,2.32,4L75.64,80.28A2.68,2.68,0,0,1,73.32,81.62Z"/></g></g></svg>